<svg id="visual" viewBox="0 0 960 540" width="960" height="540" xmlns="http://www.w3.org/2000/svg" xmlns:xlink="http://www.w3.org/1999/xlink" version="1.1"><rect x="0" y="0" width="960" height="540" fill="#fdd8c5"></rect><path d="M0 172L10 158.8C20 145.7 40 119.3 60 128.2C80 137 100 181 120 209.7C140 238.3 160 251.7 180 230.5C200 209.3 220 153.7 240 140.2C260 126.7 280 155.3 300 175.8C320 196.3 340 208.7 360 203.3C380 198 400 175 420 176.7C440 178.3 460 204.7 480 199.7C500 194.7 520 158.3 540 135C560 111.7 580 101.3 600 109.8C620 118.3 640 145.7 660 154.5C680 163.3 700 153.7 720 153.8C740 154 760 164 780 172.3C800 180.7 820 187.3 840 185.8C860 184.3 880 174.7 900 165.2C920 155.7 940 146.3 950 141.7L960 137L960 541L950 541C940 541 920 541 900 541C880 541 860 541 840 541C820 541 800 541 780 541C760 541 740 541 720 541C700 541 680 541 660 541C640 541 620 541 600 541C580 541 560 541 540 541C520 541 500 541 480 541C460 541 440 541 420 541C400 541 380 541 360 541C340 541 320 541 300 541C280 541 260 541 240 541C220 541 200 541 180 541C160 541 140 541 120 541C100 541 80 541 60 541C40 541 20 541 10 541L0 541Z" fill="#fabbb6"></path><path d="M0 255L10 243.7C20 232.3 40 209.7 60 219.3C80 229 100 271 120 280.5C140 290 160 267 180 265.8C200 264.7 220 285.3 240 278.7C260 272 280 238 300 223.7C320 209.3 340 214.7 360 232C380 249.3 400 278.7 420 279.2C440 279.7 460 251.3 480 253.8C500 256.3 520 289.7 540 286.7C560 283.7 580 244.3 600 222.8C620 201.3 640 197.7 660 216.5C680 235.3 700 276.7 720 291C740 305.3 760 292.7 780 286C800 279.3 820 278.7 840 282.8C860 287 880 296 900 292.7C920 289.3 940 273.7 950 265.8L960 258L960 541L950 541C940 541 920 541 900 541C880 541 860 541 840 541C820 541 800 541 780 541C760 541 740 541 720 541C700 541 680 541 660 541C640 541 620 541 600 541C580 541 560 541 540 541C520 541 500 541 480 541C460 541 440 541 420 541C400 541 380 541 360 541C340 541 320 541 300 541C280 541 260 541 240 541C220 541 200 541 180 541C160 541 140 541 120 541C100 541 80 541 60 541C40 541 20 541 10 541L0 541Z" fill="#fbada2"></path><path d="M0 335L10 340.2C20 345.3 40 355.7 60 361.7C80 367.7 100 369.3 120 355.8C140 342.3 160 313.7 180 302.8C200 292 220 299 240 302.2C260 305.3 280 304.7 300 316.5C320 328.3 340 352.7 360 356.5C380 360.3 400 343.7 420 336.3C440 329 460 331 480 337.2C500 343.3 520 353.7 540 359C560 364.3 580 364.7 600 349.7C620 334.7 640 304.3 660 288.2C680 272 700 270 720 282.7C740 295.3 760 322.7 780 325.8C800 329 820 308 840 307.3C860 306.7 880 326.3 900 329.3C920 332.3 940 318.7 950 311.8L960 305L960 541L950 541C940 541 920 541 900 541C880 541 860 541 840 541C820 541 800 541 780 541C760 541 740 541 720 541C700 541 680 541 660 541C640 541 620 541 600 541C580 541 560 541 540 541C520 541 500 541 480 541C460 541 440 541 420 541C400 541 380 541 360 541C340 541 320 541 300 541C280 541 260 541 240 541C220 541 200 541 180 541C160 541 140 541 120 541C100 541 80 541 60 541C40 541 20 541 10 541L0 541Z" fill="#faa08c"></path><path d="M0 342L10 357C20 372 40 402 60 400.5C80 399 100 366 120 367C140 368 160 403 180 415.5C200 428 220 418 240 402.8C260 387.7 280 367.3 300 354C320 340.7 340 334.3 360 336.8C380 339.3 400 350.7 420 355.7C440 360.7 460 359.3 480 359.5C500 359.7 520 361.3 540 361.3C560 361.3 580 359.7 600 358.8C620 358 640 358 660 356.2C680 354.3 700 350.7 720 357.8C740 365 760 383 780 389.3C800 395.7 820 390.3 840 385.3C860 380.3 880 375.7 900 372.5C920 369.3 940 367.7 950 366.8L960 366L960 541L950 541C940 541 920 541 900 541C880 541 860 541 840 541C820 541 800 541 780 541C760 541 740 541 720 541C700 541 680 541 660 541C640 541 620 541 600 541C580 541 560 541 540 541C520 541 500 541 480 541C460 541 440 541 420 541C400 541 380 541 360 541C340 541 320 541 300 541C280 541 260 541 240 541C220 541 200 541 180 541C160 541 140 541 120 541C100 541 80 541 60 541C40 541 20 541 10 541L0 541Z" fill="#f79474"></path><path d="M0 467L10 467.2C20 467.3 40 467.7 60 464.2C80 460.7 100 453.3 120 449.7C140 446 160 446 180 445.5C200 445 220 444 240 443.8C260 443.7 280 444.3 300 451.2C320 458 340 471 360 476.2C380 481.3 400 478.7 420 476.8C440 475 460 474 480 474.5C500 475 520 477 540 467C560 457 580 435 600 437.3C620 439.7 640 466.3 660 473.3C680 480.3 700 467.7 720 454.8C740 442 760 429 780 434.2C800 439.3 820 462.7 840 464.2C860 465.7 880 445.3 900 437.5C920 429.7 940 434.3 950 436.7L960 439L960 541L950 541C940 541 920 541 900 541C880 541 860 541 840 541C820 541 800 541 780 541C760 541 740 541 720 541C700 541 680 541 660 541C640 541 620 541 600 541C580 541 560 541 540 541C520 541 500 541 480 541C460 541 440 541 420 541C400 541 380 541 360 541C340 541 320 541 300 541C280 541 260 541 240 541C220 541 200 541 180 541C160 541 140 541 120 541C100 541 80 541 60 541C40 541 20 541 10 541L0 541Z" fill="#f1895b"></path></svg>